<svg xmlns="http://www.w3.org/2000/svg" xml:space="preserve" xmlns:xlink="http://www.w3.org/1999/xlink" style="max-width: 100%;height: auto;" width="984" height="984" viewBox="0 0 984 984">
<rect width="984" height="984" fill="#ffffff" x="0" y="0"></rect>
<g fill="#000000">
<g transform="translate(240,48) scale(4.12)"><rect width="6" height="6"></rect></g>
<g transform="translate(264,48) scale(4.12)"><rect width="6" height="6"></rect></g>
<g transform="translate(288,48) scale(4.12)"><rect width="6" height="6"></rect></g>
<g transform="translate(312,48) scale(4.12)"><rect width="6" height="6"></rect></g>
<g transform="translate(336,48) scale(4.12)"><rect width="6" height="6"></rect></g>
<g transform="translate(360,48) scale(4.12)"><rect width="6" height="6"></rect></g>
<g transform="translate(384,48) scale(4.12)"><rect width="6" height="6"></rect></g>
<g transform="translate(432,48) scale(4.12)"><rect width="6" height="6"></rect></g>
<g transform="translate(576,48) scale(4.12)"><rect width="6" height="6"></rect></g>
<g transform="translate(624,48) scale(4.12)"><rect width="6" height="6"></rect></g>
<g transform="translate(240,72) scale(4.12)"><rect width="6" height="6"></rect></g>
<g transform="translate(264,72) scale(4.12)"><rect width="6" height="6"></rect></g>
<g transform="translate(312,72) scale(4.12)"><rect width="6" height="6"></rect></g>
<g transform="translate(336,72) scale(4.12)"><rect width="6" height="6"></rect></g>
<g transform="translate(360,72) scale(4.12)"><rect width="6" height="6"></rect></g>
<g transform="translate(384,72) scale(4.12)"><rect width="6" height="6"></rect></g>
<g transform="translate(408,72) scale(4.12)"><rect width="6" height="6"></rect></g>
<g transform="translate(456,72) scale(4.12)"><rect width="6" height="6"></rect></g>
<g transform="translate(480,72) scale(4.12)"><rect width="6" height="6"></rect></g>
<g transform="translate(504,72) scale(4.12)"><rect width="6" height="6"></rect></g>
<g transform="translate(528,72) scale(4.12)"><rect width="6" height="6"></rect></g>
<g transform="translate(552,72) scale(4.12)"><rect width="6" height="6"></rect></g>
<g transform="translate(600,72) scale(4.12)"><rect width="6" height="6"></rect></g>
<g transform="translate(672,72) scale(4.12)"><rect width="6" height="6"></rect></g>
<g transform="translate(696,72) scale(4.12)"><rect width="6" height="6"></rect></g>
<g transform="translate(720,72) scale(4.12)"><rect width="6" height="6"></rect></g>
<g transform="translate(240,96) scale(4.12)"><rect width="6" height="6"></rect></g>
<g transform="translate(264,96) scale(4.12)"><rect width="6" height="6"></rect></g>
<g transform="translate(312,96) scale(4.12)"><rect width="6" height="6"></rect></g>
<g transform="translate(336,96) scale(4.12)"><rect width="6" height="6"></rect></g>
<g transform="translate(360,96) scale(4.12)"><rect width="6" height="6"></rect></g>
<g transform="translate(408,96) scale(4.12)"><rect width="6" height="6"></rect></g>
<g transform="translate(456,96) scale(4.12)"><rect width="6" height="6"></rect></g>
<g transform="translate(504,96) scale(4.12)"><rect width="6" height="6"></rect></g>
<g transform="translate(528,96) scale(4.12)"><rect width="6" height="6"></rect></g>
<g transform="translate(600,96) scale(4.12)"><rect width="6" height="6"></rect></g>
<g transform="translate(624,96) scale(4.12)"><rect width="6" height="6"></rect></g>
<g transform="translate(672,96) scale(4.12)"><rect width="6" height="6"></rect></g>
<g transform="translate(696,96) scale(4.12)"><rect width="6" height="6"></rect></g>
<g transform="translate(720,96) scale(4.12)"><rect width="6" height="6"></rect></g>
<g transform="translate(288,120) scale(4.12)"><rect width="6" height="6"></rect></g>
<g transform="translate(384,120) scale(4.12)"><rect width="6" height="6"></rect></g>
<g transform="translate(408,120) scale(4.12)"><rect width="6" height="6"></rect></g>
<g transform="translate(480,120) scale(4.12)"><rect width="6" height="6"></rect></g>
<g transform="translate(552,120) scale(4.12)"><rect width="6" height="6"></rect></g>
<g transform="translate(576,120) scale(4.12)"><rect width="6" height="6"></rect></g>
<g transform="translate(600,120) scale(4.12)"><rect width="6" height="6"></rect></g>
<g transform="translate(648,120) scale(4.12)"><rect width="6" height="6"></rect></g>
<g transform="translate(672,120) scale(4.12)"><rect width="6" height="6"></rect></g>
<g transform="translate(264,144) scale(4.12)"><rect width="6" height="6"></rect></g>
<g transform="translate(360,144) scale(4.12)"><rect width="6" height="6"></rect></g>
<g transform="translate(432,144) scale(4.12)"><rect width="6" height="6"></rect></g>
<g transform="translate(456,144) scale(4.12)"><rect width="6" height="6"></rect></g>
<g transform="translate(480,144) scale(4.12)"><rect width="6" height="6"></rect></g>
<g transform="translate(528,144) scale(4.12)"><rect width="6" height="6"></rect></g>
<g transform="translate(576,144) scale(4.12)"><rect width="6" height="6"></rect></g>
<g transform="translate(624,144) scale(4.12)"><rect width="6" height="6"></rect></g>
<g transform="translate(672,144) scale(4.12)"><rect width="6" height="6"></rect></g>
<g transform="translate(240,168) scale(4.12)"><rect width="6" height="6"></rect></g>
<g transform="translate(288,168) scale(4.12)"><rect width="6" height="6"></rect></g>
<g transform="translate(312,168) scale(4.12)"><rect width="6" height="6"></rect></g>
<g transform="translate(336,168) scale(4.12)"><rect width="6" height="6"></rect></g>
<g transform="translate(432,168) scale(4.12)"><rect width="6" height="6"></rect></g>
<g transform="translate(456,168) scale(4.12)"><rect width="6" height="6"></rect></g>
<g transform="translate(552,168) scale(4.12)"><rect width="6" height="6"></rect></g>
<g transform="translate(624,168) scale(4.12)"><rect width="6" height="6"></rect></g>
<g transform="translate(696,168) scale(4.12)"><rect width="6" height="6"></rect></g>
<g transform="translate(720,168) scale(4.12)"><rect width="6" height="6"></rect></g>
<g transform="translate(240,192) scale(4.12)"><rect width="6" height="6"></rect></g>
<g transform="translate(288,192) scale(4.12)"><rect width="6" height="6"></rect></g>
<g transform="translate(336,192) scale(4.12)"><rect width="6" height="6"></rect></g>
<g transform="translate(384,192) scale(4.12)"><rect width="6" height="6"></rect></g>
<g transform="translate(432,192) scale(4.12)"><rect width="6" height="6"></rect></g>
<g transform="translate(480,192) scale(4.12)"><rect width="6" height="6"></rect></g>
<g transform="translate(528,192) scale(4.12)"><rect width="6" height="6"></rect></g>
<g transform="translate(576,192) scale(4.12)"><rect width="6" height="6"></rect></g>
<g transform="translate(624,192) scale(4.12)"><rect width="6" height="6"></rect></g>
<g transform="translate(672,192) scale(4.12)"><rect width="6" height="6"></rect></g>
<g transform="translate(720,192) scale(4.12)"><rect width="6" height="6"></rect></g>
<g transform="translate(240,216) scale(4.12)"><rect width="6" height="6"></rect></g>
<g transform="translate(264,216) scale(4.12)"><rect width="6" height="6"></rect></g>
<g transform="translate(288,216) scale(4.12)"><rect width="6" height="6"></rect></g>
<g transform="translate(312,216) scale(4.12)"><rect width="6" height="6"></rect></g>
<g transform="translate(408,216) scale(4.12)"><rect width="6" height="6"></rect></g>
<g transform="translate(432,216) scale(4.12)"><rect width="6" height="6"></rect></g>
<g transform="translate(504,216) scale(4.12)"><rect width="6" height="6"></rect></g>
<g transform="translate(528,216) scale(4.12)"><rect width="6" height="6"></rect></g>
<g transform="translate(552,216) scale(4.12)"><rect width="6" height="6"></rect></g>
<g transform="translate(576,216) scale(4.12)"><rect width="6" height="6"></rect></g>
<g transform="translate(672,216) scale(4.12)"><rect width="6" height="6"></rect></g>
<g transform="translate(720,216) scale(4.12)"><rect width="6" height="6"></rect></g>
<g transform="translate(96,240) scale(4.12)"><rect width="6" height="6"></rect></g>
<g transform="translate(120,240) scale(4.12)"><rect width="6" height="6"></rect></g>
<g transform="translate(144,240) scale(4.12)"><rect width="6" height="6"></rect></g>
<g transform="translate(192,240) scale(4.12)"><rect width="6" height="6"></rect></g>
<g transform="translate(240,240) scale(4.12)"><rect width="6" height="6"></rect></g>
<g transform="translate(264,240) scale(4.12)"><rect width="6" height="6"></rect></g>
<g transform="translate(288,240) scale(4.12)"><rect width="6" height="6"></rect></g>
<g transform="translate(312,240) scale(4.12)"><rect width="6" height="6"></rect></g>
<g transform="translate(336,240) scale(4.12)"><rect width="6" height="6"></rect></g>
<g transform="translate(360,240) scale(4.12)"><rect width="6" height="6"></rect></g>
<g transform="translate(384,240) scale(4.12)"><rect width="6" height="6"></rect></g>
<g transform="translate(456,240) scale(4.12)"><rect width="6" height="6"></rect></g>
<g transform="translate(552,240) scale(4.12)"><rect width="6" height="6"></rect></g>
<g transform="translate(744,240) scale(4.12)"><rect width="6" height="6"></rect></g>
<g transform="translate(768,240) scale(4.12)"><rect width="6" height="6"></rect></g>
<g transform="translate(792,240) scale(4.12)"><rect width="6" height="6"></rect></g>
<g transform="translate(864,240) scale(4.12)"><rect width="6" height="6"></rect></g>
<g transform="translate(888,240) scale(4.12)"><rect width="6" height="6"></rect></g>
<g transform="translate(912,240) scale(4.12)"><rect width="6" height="6"></rect></g>
<g transform="translate(72,264) scale(4.12)"><rect width="6" height="6"></rect></g>
<g transform="translate(120,264) scale(4.12)"><rect width="6" height="6"></rect></g>
<g transform="translate(144,264) scale(4.12)"><rect width="6" height="6"></rect></g>
<g transform="translate(264,264) scale(4.12)"><rect width="6" height="6"></rect></g>
<g transform="translate(288,264) scale(4.12)"><rect width="6" height="6"></rect></g>
<g transform="translate(360,264) scale(4.12)"><rect width="6" height="6"></rect></g>
<g transform="translate(384,264) scale(4.12)"><rect width="6" height="6"></rect></g>
<g transform="translate(432,264) scale(4.12)"><rect width="6" height="6"></rect></g>
<g transform="translate(456,264) scale(4.12)"><rect width="6" height="6"></rect></g>
<g transform="translate(480,264) scale(4.12)"><rect width="6" height="6"></rect></g>
<g transform="translate(528,264) scale(4.12)"><rect width="6" height="6"></rect></g>
<g transform="translate(624,264) scale(4.12)"><rect width="6" height="6"></rect></g>
<g transform="translate(648,264) scale(4.12)"><rect width="6" height="6"></rect></g>
<g transform="translate(672,264) scale(4.12)"><rect width="6" height="6"></rect></g>
<g transform="translate(696,264) scale(4.12)"><rect width="6" height="6"></rect></g>
<g transform="translate(720,264) scale(4.12)"><rect width="6" height="6"></rect></g>
<g transform="translate(792,264) scale(4.12)"><rect width="6" height="6"></rect></g>
<g transform="translate(864,264) scale(4.12)"><rect width="6" height="6"></rect></g>
<g transform="translate(48,288) scale(4.12)"><rect width="6" height="6"></rect></g>
<g transform="translate(144,288) scale(4.12)"><rect width="6" height="6"></rect></g>
<g transform="translate(192,288) scale(4.12)"><rect width="6" height="6"></rect></g>
<g transform="translate(216,288) scale(4.12)"><rect width="6" height="6"></rect></g>
<g transform="translate(288,288) scale(4.12)"><rect width="6" height="6"></rect></g>
<g transform="translate(312,288) scale(4.12)"><rect width="6" height="6"></rect></g>
<g transform="translate(360,288) scale(4.12)"><rect width="6" height="6"></rect></g>
<g transform="translate(408,288) scale(4.12)"><rect width="6" height="6"></rect></g>
<g transform="translate(504,288) scale(4.12)"><rect width="6" height="6"></rect></g>
<g transform="translate(528,288) scale(4.12)"><rect width="6" height="6"></rect></g>
<g transform="translate(552,288) scale(4.12)"><rect width="6" height="6"></rect></g>
<g transform="translate(600,288) scale(4.12)"><rect width="6" height="6"></rect></g>
<g transform="translate(624,288) scale(4.12)"><rect width="6" height="6"></rect></g>
<g transform="translate(648,288) scale(4.12)"><rect width="6" height="6"></rect></g>
<g transform="translate(672,288) scale(4.12)"><rect width="6" height="6"></rect></g>
<g transform="translate(768,288) scale(4.12)"><rect width="6" height="6"></rect></g>
<g transform="translate(792,288) scale(4.12)"><rect width="6" height="6"></rect></g>
<g transform="translate(840,288) scale(4.12)"><rect width="6" height="6"></rect></g>
<g transform="translate(888,288) scale(4.12)"><rect width="6" height="6"></rect></g>
<g transform="translate(912,288) scale(4.12)"><rect width="6" height="6"></rect></g>
<g transform="translate(48,312) scale(4.12)"><rect width="6" height="6"></rect></g>
<g transform="translate(72,312) scale(4.12)"><rect width="6" height="6"></rect></g>
<g transform="translate(120,312) scale(4.12)"><rect width="6" height="6"></rect></g>
<g transform="translate(240,312) scale(4.12)"><rect width="6" height="6"></rect></g>
<g transform="translate(264,312) scale(4.12)"><rect width="6" height="6"></rect></g>
<g transform="translate(456,312) scale(4.12)"><rect width="6" height="6"></rect></g>
<g transform="translate(480,312) scale(4.12)"><rect width="6" height="6"></rect></g>
<g transform="translate(552,312) scale(4.12)"><rect width="6" height="6"></rect></g>
<g transform="translate(576,312) scale(4.12)"><rect width="6" height="6"></rect></g>
<g transform="translate(600,312) scale(4.12)"><rect width="6" height="6"></rect></g>
<g transform="translate(624,312) scale(4.12)"><rect width="6" height="6"></rect></g>
<g transform="translate(672,312) scale(4.12)"><rect width="6" height="6"></rect></g>
<g transform="translate(720,312) scale(4.12)"><rect width="6" height="6"></rect></g>
<g transform="translate(768,312) scale(4.12)"><rect width="6" height="6"></rect></g>
<g transform="translate(840,312) scale(4.12)"><rect width="6" height="6"></rect></g>
<g transform="translate(912,312) scale(4.12)"><rect width="6" height="6"></rect></g>
<g transform="translate(48,336) scale(4.12)"><rect width="6" height="6"></rect></g>
<g transform="translate(72,336) scale(4.12)"><rect width="6" height="6"></rect></g>
<g transform="translate(144,336) scale(4.12)"><rect width="6" height="6"></rect></g>
<g transform="translate(192,336) scale(4.12)"><rect width="6" height="6"></rect></g>
<g transform="translate(216,336) scale(4.12)"><rect width="6" height="6"></rect></g>
<g transform="translate(264,336) scale(4.12)"><rect width="6" height="6"></rect></g>
<g transform="translate(336,336) scale(4.12)"><rect width="6" height="6"></rect></g>
<g transform="translate(384,336) scale(4.12)"><rect width="6" height="6"></rect></g>
<g transform="translate(456,336) scale(4.12)"><rect width="6" height="6"></rect></g>
<g transform="translate(504,336) scale(4.12)"><rect width="6" height="6"></rect></g>
<g transform="translate(528,336) scale(4.12)"><rect width="6" height="6"></rect></g>
<g transform="translate(552,336) scale(4.12)"><rect width="6" height="6"></rect></g>
<g transform="translate(600,336) scale(4.12)"><rect width="6" height="6"></rect></g>
<g transform="translate(648,336) scale(4.12)"><rect width="6" height="6"></rect></g>
<g transform="translate(672,336) scale(4.12)"><rect width="6" height="6"></rect></g>
<g transform="translate(744,336) scale(4.12)"><rect width="6" height="6"></rect></g>
<g transform="translate(768,336) scale(4.12)"><rect width="6" height="6"></rect></g>
<g transform="translate(816,336) scale(4.12)"><rect width="6" height="6"></rect></g>
<g transform="translate(840,336) scale(4.12)"><rect width="6" height="6"></rect></g>
<g transform="translate(864,336) scale(4.12)"><rect width="6" height="6"></rect></g>
<g transform="translate(912,336) scale(4.12)"><rect width="6" height="6"></rect></g>
<g transform="translate(48,360) scale(4.12)"><rect width="6" height="6"></rect></g>
<g transform="translate(72,360) scale(4.12)"><rect width="6" height="6"></rect></g>
<g transform="translate(120,360) scale(4.12)"><rect width="6" height="6"></rect></g>
<g transform="translate(144,360) scale(4.12)"><rect width="6" height="6"></rect></g>
<g transform="translate(168,360) scale(4.12)"><rect width="6" height="6"></rect></g>
<g transform="translate(216,360) scale(4.12)"><rect width="6" height="6"></rect></g>
<g transform="translate(240,360) scale(4.12)"><rect width="6" height="6"></rect></g>
<g transform="translate(288,360) scale(4.12)"><rect width="6" height="6"></rect></g>
<g transform="translate(312,360) scale(4.12)"><rect width="6" height="6"></rect></g>
<g transform="translate(336,360) scale(4.12)"><rect width="6" height="6"></rect></g>
<g transform="translate(384,360) scale(4.12)"><rect width="6" height="6"></rect></g>
<g transform="translate(408,360) scale(4.12)"><rect width="6" height="6"></rect></g>
<g transform="translate(480,360) scale(4.12)"><rect width="6" height="6"></rect></g>
<g transform="translate(528,360) scale(4.12)"><rect width="6" height="6"></rect></g>
<g transform="translate(600,360) scale(4.12)"><rect width="6" height="6"></rect></g>
<g transform="translate(624,360) scale(4.12)"><rect width="6" height="6"></rect></g>
<g transform="translate(648,360) scale(4.12)"><rect width="6" height="6"></rect></g>
<g transform="translate(720,360) scale(4.12)"><rect width="6" height="6"></rect></g>
<g transform="translate(744,360) scale(4.12)"><rect width="6" height="6"></rect></g>
<g transform="translate(792,360) scale(4.12)"><rect width="6" height="6"></rect></g>
<g transform="translate(840,360) scale(4.12)"><rect width="6" height="6"></rect></g>
<g transform="translate(864,360) scale(4.12)"><rect width="6" height="6"></rect></g>
<g transform="translate(72,384) scale(4.12)"><rect width="6" height="6"></rect></g>
<g transform="translate(96,384) scale(4.12)"><rect width="6" height="6"></rect></g>
<g transform="translate(144,384) scale(4.12)"><rect width="6" height="6"></rect></g>
<g transform="translate(168,384) scale(4.12)"><rect width="6" height="6"></rect></g>
<g transform="translate(192,384) scale(4.12)"><rect width="6" height="6"></rect></g>
<g transform="translate(384,384) scale(4.12)"><rect width="6" height="6"></rect></g>
<g transform="translate(408,384) scale(4.12)"><rect width="6" height="6"></rect></g>
<g transform="translate(504,384) scale(4.12)"><rect width="6" height="6"></rect></g>
<g transform="translate(528,384) scale(4.12)"><rect width="6" height="6"></rect></g>
<g transform="translate(552,384) scale(4.12)"><rect width="6" height="6"></rect></g>
<g transform="translate(576,384) scale(4.12)"><rect width="6" height="6"></rect></g>
<g transform="translate(624,384) scale(4.12)"><rect width="6" height="6"></rect></g>
<g transform="translate(648,384) scale(4.12)"><rect width="6" height="6"></rect></g>
<g transform="translate(672,384) scale(4.12)"><rect width="6" height="6"></rect></g>
<g transform="translate(696,384) scale(4.12)"><rect width="6" height="6"></rect></g>
<g transform="translate(744,384) scale(4.12)"><rect width="6" height="6"></rect></g>
<g transform="translate(792,384) scale(4.12)"><rect width="6" height="6"></rect></g>
<g transform="translate(816,384) scale(4.12)"><rect width="6" height="6"></rect></g>
<g transform="translate(840,384) scale(4.12)"><rect width="6" height="6"></rect></g>
<g transform="translate(888,384) scale(4.12)"><rect width="6" height="6"></rect></g>
<g transform="translate(912,384) scale(4.12)"><rect width="6" height="6"></rect></g>
<g transform="translate(96,408) scale(4.12)"><rect width="6" height="6"></rect></g>
<g transform="translate(120,408) scale(4.12)"><rect width="6" height="6"></rect></g>
<g transform="translate(144,408) scale(4.12)"><rect width="6" height="6"></rect></g>
<g transform="translate(168,408) scale(4.12)"><rect width="6" height="6"></rect></g>
<g transform="translate(216,408) scale(4.12)"><rect width="6" height="6"></rect></g>
<g transform="translate(240,408) scale(4.12)"><rect width="6" height="6"></rect></g>
<g transform="translate(288,408) scale(4.12)"><rect width="6" height="6"></rect></g>
<g transform="translate(336,408) scale(4.12)"><rect width="6" height="6"></rect></g>
<g transform="translate(360,408) scale(4.12)"><rect width="6" height="6"></rect></g>
<g transform="translate(408,408) scale(4.12)"><rect width="6" height="6"></rect></g>
<g transform="translate(432,408) scale(4.12)"><rect width="6" height="6"></rect></g>
<g transform="translate(456,408) scale(4.12)"><rect width="6" height="6"></rect></g>
<g transform="translate(480,408) scale(4.12)"><rect width="6" height="6"></rect></g>
<g transform="translate(504,408) scale(4.12)"><rect width="6" height="6"></rect></g>
<g transform="translate(552,408) scale(4.12)"><rect width="6" height="6"></rect></g>
<g transform="translate(600,408) scale(4.12)"><rect width="6" height="6"></rect></g>
<g transform="translate(672,408) scale(4.12)"><rect width="6" height="6"></rect></g>
<g transform="translate(792,408) scale(4.12)"><rect width="6" height="6"></rect></g>
<g transform="translate(816,408) scale(4.12)"><rect width="6" height="6"></rect></g>
<g transform="translate(912,408) scale(4.12)"><rect width="6" height="6"></rect></g>
<g transform="translate(120,432) scale(4.12)"><rect width="6" height="6"></rect></g>
<g transform="translate(144,432) scale(4.12)"><rect width="6" height="6"></rect></g>
<g transform="translate(192,432) scale(4.12)"><rect width="6" height="6"></rect></g>
<g transform="translate(240,432) scale(4.12)"><rect width="6" height="6"></rect></g>
<g transform="translate(264,432) scale(4.12)"><rect width="6" height="6"></rect></g>
<g transform="translate(336,432) scale(4.12)"><rect width="6" height="6"></rect></g>
<g transform="translate(456,432) scale(4.12)"><rect width="6" height="6"></rect></g>
<g transform="translate(552,432) scale(4.12)"><rect width="6" height="6"></rect></g>
<g transform="translate(600,432) scale(4.12)"><rect width="6" height="6"></rect></g>
<g transform="translate(624,432) scale(4.12)"><rect width="6" height="6"></rect></g>
<g transform="translate(648,432) scale(4.12)"><rect width="6" height="6"></rect></g>
<g transform="translate(672,432) scale(4.12)"><rect width="6" height="6"></rect></g>
<g transform="translate(696,432) scale(4.12)"><rect width="6" height="6"></rect></g>
<g transform="translate(744,432) scale(4.12)"><rect width="6" height="6"></rect></g>
<g transform="translate(768,432) scale(4.12)"><rect width="6" height="6"></rect></g>
<g transform="translate(816,432) scale(4.12)"><rect width="6" height="6"></rect></g>
<g transform="translate(864,432) scale(4.12)"><rect width="6" height="6"></rect></g>
<g transform="translate(888,432) scale(4.12)"><rect width="6" height="6"></rect></g>
<g transform="translate(912,432) scale(4.12)"><rect width="6" height="6"></rect></g>
<g transform="translate(48,456) scale(4.12)"><rect width="6" height="6"></rect></g>
<g transform="translate(96,456) scale(4.12)"><rect width="6" height="6"></rect></g>
<g transform="translate(216,456) scale(4.12)"><rect width="6" height="6"></rect></g>
<g transform="translate(288,456) scale(4.12)"><rect width="6" height="6"></rect></g>
<g transform="translate(312,456) scale(4.12)"><rect width="6" height="6"></rect></g>
<g transform="translate(456,456) scale(4.12)"><rect width="6" height="6"></rect></g>
<g transform="translate(480,456) scale(4.12)"><rect width="6" height="6"></rect></g>
<g transform="translate(504,456) scale(4.12)"><rect width="6" height="6"></rect></g>
<g transform="translate(552,456) scale(4.12)"><rect width="6" height="6"></rect></g>
<g transform="translate(600,456) scale(4.12)"><rect width="6" height="6"></rect></g>
<g transform="translate(624,456) scale(4.12)"><rect width="6" height="6"></rect></g>
<g transform="translate(720,456) scale(4.12)"><rect width="6" height="6"></rect></g>
<g transform="translate(840,456) scale(4.12)"><rect width="6" height="6"></rect></g>
<g transform="translate(864,456) scale(4.12)"><rect width="6" height="6"></rect></g>
<g transform="translate(48,480) scale(4.12)"><rect width="6" height="6"></rect></g>
<g transform="translate(96,480) scale(4.12)"><rect width="6" height="6"></rect></g>
<g transform="translate(120,480) scale(4.12)"><rect width="6" height="6"></rect></g>
<g transform="translate(192,480) scale(4.12)"><rect width="6" height="6"></rect></g>
<g transform="translate(240,480) scale(4.12)"><rect width="6" height="6"></rect></g>
<g transform="translate(288,480) scale(4.12)"><rect width="6" height="6"></rect></g>
<g transform="translate(336,480) scale(4.12)"><rect width="6" height="6"></rect></g>
<g transform="translate(360,480) scale(4.12)"><rect width="6" height="6"></rect></g>
<g transform="translate(456,480) scale(4.12)"><rect width="6" height="6"></rect></g>
<g transform="translate(480,480) scale(4.12)"><rect width="6" height="6"></rect></g>
<g transform="translate(504,480) scale(4.12)"><rect width="6" height="6"></rect></g>
<g transform="translate(624,480) scale(4.12)"><rect width="6" height="6"></rect></g>
<g transform="translate(648,480) scale(4.12)"><rect width="6" height="6"></rect></g>
<g transform="translate(672,480) scale(4.12)"><rect width="6" height="6"></rect></g>
<g transform="translate(696,480) scale(4.12)"><rect width="6" height="6"></rect></g>
<g transform="translate(720,480) scale(4.12)"><rect width="6" height="6"></rect></g>
<g transform="translate(744,480) scale(4.12)"><rect width="6" height="6"></rect></g>
<g transform="translate(816,480) scale(4.12)"><rect width="6" height="6"></rect></g>
<g transform="translate(840,480) scale(4.12)"><rect width="6" height="6"></rect></g>
<g transform="translate(888,480) scale(4.12)"><rect width="6" height="6"></rect></g>
<g transform="translate(912,480) scale(4.12)"><rect width="6" height="6"></rect></g>
<g transform="translate(48,504) scale(4.12)"><rect width="6" height="6"></rect></g>
<g transform="translate(96,504) scale(4.12)"><rect width="6" height="6"></rect></g>
<g transform="translate(144,504) scale(4.12)"><rect width="6" height="6"></rect></g>
<g transform="translate(216,504) scale(4.12)"><rect width="6" height="6"></rect></g>
<g transform="translate(240,504) scale(4.12)"><rect width="6" height="6"></rect></g>
<g transform="translate(312,504) scale(4.12)"><rect width="6" height="6"></rect></g>
<g transform="translate(336,504) scale(4.12)"><rect width="6" height="6"></rect></g>
<g transform="translate(384,504) scale(4.12)"><rect width="6" height="6"></rect></g>
<g transform="translate(408,504) scale(4.12)"><rect width="6" height="6"></rect></g>
<g transform="translate(432,504) scale(4.12)"><rect width="6" height="6"></rect></g>
<g transform="translate(480,504) scale(4.12)"><rect width="6" height="6"></rect></g>
<g transform="translate(552,504) scale(4.12)"><rect width="6" height="6"></rect></g>
<g transform="translate(624,504) scale(4.12)"><rect width="6" height="6"></rect></g>
<g transform="translate(720,504) scale(4.12)"><rect width="6" height="6"></rect></g>
<g transform="translate(744,504) scale(4.12)"><rect width="6" height="6"></rect></g>
<g transform="translate(768,504) scale(4.12)"><rect width="6" height="6"></rect></g>
<g transform="translate(888,504) scale(4.12)"><rect width="6" height="6"></rect></g>
<g transform="translate(144,528) scale(4.12)"><rect width="6" height="6"></rect></g>
<g transform="translate(168,528) scale(4.12)"><rect width="6" height="6"></rect></g>
<g transform="translate(192,528) scale(4.12)"><rect width="6" height="6"></rect></g>
<g transform="translate(288,528) scale(4.12)"><rect width="6" height="6"></rect></g>
<g transform="translate(312,528) scale(4.12)"><rect width="6" height="6"></rect></g>
<g transform="translate(336,528) scale(4.12)"><rect width="6" height="6"></rect></g>
<g transform="translate(360,528) scale(4.12)"><rect width="6" height="6"></rect></g>
<g transform="translate(432,528) scale(4.12)"><rect width="6" height="6"></rect></g>
<g transform="translate(456,528) scale(4.12)"><rect width="6" height="6"></rect></g>
<g transform="translate(480,528) scale(4.12)"><rect width="6" height="6"></rect></g>
<g transform="translate(504,528) scale(4.12)"><rect width="6" height="6"></rect></g>
<g transform="translate(552,528) scale(4.12)"><rect width="6" height="6"></rect></g>
<g transform="translate(600,528) scale(4.12)"><rect width="6" height="6"></rect></g>
<g transform="translate(648,528) scale(4.12)"><rect width="6" height="6"></rect></g>
<g transform="translate(744,528) scale(4.12)"><rect width="6" height="6"></rect></g>
<g transform="translate(768,528) scale(4.12)"><rect width="6" height="6"></rect></g>
<g transform="translate(792,528) scale(4.12)"><rect width="6" height="6"></rect></g>
<g transform="translate(816,528) scale(4.12)"><rect width="6" height="6"></rect></g>
<g transform="translate(864,528) scale(4.12)"><rect width="6" height="6"></rect></g>
<g transform="translate(888,528) scale(4.12)"><rect width="6" height="6"></rect></g>
<g transform="translate(912,528) scale(4.12)"><rect width="6" height="6"></rect></g>
<g transform="translate(48,552) scale(4.12)"><rect width="6" height="6"></rect></g>
<g transform="translate(72,552) scale(4.12)"><rect width="6" height="6"></rect></g>
<g transform="translate(96,552) scale(4.12)"><rect width="6" height="6"></rect></g>
<g transform="translate(168,552) scale(4.12)"><rect width="6" height="6"></rect></g>
<g transform="translate(216,552) scale(4.12)"><rect width="6" height="6"></rect></g>
<g transform="translate(264,552) scale(4.12)"><rect width="6" height="6"></rect></g>
<g transform="translate(312,552) scale(4.12)"><rect width="6" height="6"></rect></g>
<g transform="translate(336,552) scale(4.12)"><rect width="6" height="6"></rect></g>
<g transform="translate(408,552) scale(4.12)"><rect width="6" height="6"></rect></g>
<g transform="translate(432,552) scale(4.12)"><rect width="6" height="6"></rect></g>
<g transform="translate(456,552) scale(4.12)"><rect width="6" height="6"></rect></g>
<g transform="translate(480,552) scale(4.12)"><rect width="6" height="6"></rect></g>
<g transform="translate(528,552) scale(4.12)"><rect width="6" height="6"></rect></g>
<g transform="translate(552,552) scale(4.12)"><rect width="6" height="6"></rect></g>
<g transform="translate(576,552) scale(4.12)"><rect width="6" height="6"></rect></g>
<g transform="translate(600,552) scale(4.12)"><rect width="6" height="6"></rect></g>
<g transform="translate(648,552) scale(4.12)"><rect width="6" height="6"></rect></g>
<g transform="translate(792,552) scale(4.12)"><rect width="6" height="6"></rect></g>
<g transform="translate(864,552) scale(4.12)"><rect width="6" height="6"></rect></g>
<g transform="translate(48,576) scale(4.12)"><rect width="6" height="6"></rect></g>
<g transform="translate(96,576) scale(4.12)"><rect width="6" height="6"></rect></g>
<g transform="translate(120,576) scale(4.12)"><rect width="6" height="6"></rect></g>
<g transform="translate(192,576) scale(4.12)"><rect width="6" height="6"></rect></g>
<g transform="translate(216,576) scale(4.12)"><rect width="6" height="6"></rect></g>
<g transform="translate(312,576) scale(4.12)"><rect width="6" height="6"></rect></g>
<g transform="translate(384,576) scale(4.12)"><rect width="6" height="6"></rect></g>
<g transform="translate(456,576) scale(4.12)"><rect width="6" height="6"></rect></g>
<g transform="translate(480,576) scale(4.12)"><rect width="6" height="6"></rect></g>
<g transform="translate(504,576) scale(4.12)"><rect width="6" height="6"></rect></g>
<g transform="translate(600,576) scale(4.12)"><rect width="6" height="6"></rect></g>
<g transform="translate(648,576) scale(4.12)"><rect width="6" height="6"></rect></g>
<g transform="translate(672,576) scale(4.12)"><rect width="6" height="6"></rect></g>
<g transform="translate(696,576) scale(4.12)"><rect width="6" height="6"></rect></g>
<g transform="translate(744,576) scale(4.12)"><rect width="6" height="6"></rect></g>
<g transform="translate(864,576) scale(4.12)"><rect width="6" height="6"></rect></g>
<g transform="translate(888,576) scale(4.12)"><rect width="6" height="6"></rect></g>
<g transform="translate(912,576) scale(4.12)"><rect width="6" height="6"></rect></g>
<g transform="translate(48,600) scale(4.12)"><rect width="6" height="6"></rect></g>
<g transform="translate(72,600) scale(4.12)"><rect width="6" height="6"></rect></g>
<g transform="translate(96,600) scale(4.12)"><rect width="6" height="6"></rect></g>
<g transform="translate(144,600) scale(4.12)"><rect width="6" height="6"></rect></g>
<g transform="translate(216,600) scale(4.12)"><rect width="6" height="6"></rect></g>
<g transform="translate(240,600) scale(4.12)"><rect width="6" height="6"></rect></g>
<g transform="translate(312,600) scale(4.12)"><rect width="6" height="6"></rect></g>
<g transform="translate(336,600) scale(4.12)"><rect width="6" height="6"></rect></g>
<g transform="translate(360,600) scale(4.12)"><rect width="6" height="6"></rect></g>
<g transform="translate(456,600) scale(4.12)"><rect width="6" height="6"></rect></g>
<g transform="translate(480,600) scale(4.12)"><rect width="6" height="6"></rect></g>
<g transform="translate(504,600) scale(4.12)"><rect width="6" height="6"></rect></g>
<g transform="translate(528,600) scale(4.12)"><rect width="6" height="6"></rect></g>
<g transform="translate(624,600) scale(4.12)"><rect width="6" height="6"></rect></g>
<g transform="translate(648,600) scale(4.12)"><rect width="6" height="6"></rect></g>
<g transform="translate(768,600) scale(4.12)"><rect width="6" height="6"></rect></g>
<g transform="translate(792,600) scale(4.12)"><rect width="6" height="6"></rect></g>
<g transform="translate(888,600) scale(4.12)"><rect width="6" height="6"></rect></g>
<g transform="translate(72,624) scale(4.12)"><rect width="6" height="6"></rect></g>
<g transform="translate(96,624) scale(4.12)"><rect width="6" height="6"></rect></g>
<g transform="translate(192,624) scale(4.12)"><rect width="6" height="6"></rect></g>
<g transform="translate(216,624) scale(4.12)"><rect width="6" height="6"></rect></g>
<g transform="translate(240,624) scale(4.12)"><rect width="6" height="6"></rect></g>
<g transform="translate(312,624) scale(4.12)"><rect width="6" height="6"></rect></g>
<g transform="translate(360,624) scale(4.12)"><rect width="6" height="6"></rect></g>
<g transform="translate(408,624) scale(4.12)"><rect width="6" height="6"></rect></g>
<g transform="translate(480,624) scale(4.12)"><rect width="6" height="6"></rect></g>
<g transform="translate(504,624) scale(4.12)"><rect width="6" height="6"></rect></g>
<g transform="translate(528,624) scale(4.12)"><rect width="6" height="6"></rect></g>
<g transform="translate(600,624) scale(4.12)"><rect width="6" height="6"></rect></g>
<g transform="translate(624,624) scale(4.12)"><rect width="6" height="6"></rect></g>
<g transform="translate(672,624) scale(4.12)"><rect width="6" height="6"></rect></g>
<g transform="translate(744,624) scale(4.12)"><rect width="6" height="6"></rect></g>
<g transform="translate(768,624) scale(4.12)"><rect width="6" height="6"></rect></g>
<g transform="translate(816,624) scale(4.12)"><rect width="6" height="6"></rect></g>
<g transform="translate(840,624) scale(4.12)"><rect width="6" height="6"></rect></g>
<g transform="translate(864,624) scale(4.12)"><rect width="6" height="6"></rect></g>
<g transform="translate(912,624) scale(4.12)"><rect width="6" height="6"></rect></g>
<g transform="translate(48,648) scale(4.12)"><rect width="6" height="6"></rect></g>
<g transform="translate(96,648) scale(4.12)"><rect width="6" height="6"></rect></g>
<g transform="translate(120,648) scale(4.12)"><rect width="6" height="6"></rect></g>
<g transform="translate(168,648) scale(4.12)"><rect width="6" height="6"></rect></g>
<g transform="translate(216,648) scale(4.12)"><rect width="6" height="6"></rect></g>
<g transform="translate(264,648) scale(4.12)"><rect width="6" height="6"></rect></g>
<g transform="translate(384,648) scale(4.12)"><rect width="6" height="6"></rect></g>
<g transform="translate(408,648) scale(4.12)"><rect width="6" height="6"></rect></g>
<g transform="translate(528,648) scale(4.12)"><rect width="6" height="6"></rect></g>
<g transform="translate(552,648) scale(4.12)"><rect width="6" height="6"></rect></g>
<g transform="translate(696,648) scale(4.12)"><rect width="6" height="6"></rect></g>
<g transform="translate(792,648) scale(4.12)"><rect width="6" height="6"></rect></g>
<g transform="translate(864,648) scale(4.12)"><rect width="6" height="6"></rect></g>
<g transform="translate(888,648) scale(4.12)"><rect width="6" height="6"></rect></g>
<g transform="translate(48,672) scale(4.12)"><rect width="6" height="6"></rect></g>
<g transform="translate(120,672) scale(4.12)"><rect width="6" height="6"></rect></g>
<g transform="translate(192,672) scale(4.12)"><rect width="6" height="6"></rect></g>
<g transform="translate(288,672) scale(4.12)"><rect width="6" height="6"></rect></g>
<g transform="translate(312,672) scale(4.12)"><rect width="6" height="6"></rect></g>
<g transform="translate(360,672) scale(4.12)"><rect width="6" height="6"></rect></g>
<g transform="translate(408,672) scale(4.12)"><rect width="6" height="6"></rect></g>
<g transform="translate(432,672) scale(4.12)"><rect width="6" height="6"></rect></g>
<g transform="translate(504,672) scale(4.12)"><rect width="6" height="6"></rect></g>
<g transform="translate(600,672) scale(4.12)"><rect width="6" height="6"></rect></g>
<g transform="translate(624,672) scale(4.12)"><rect width="6" height="6"></rect></g>
<g transform="translate(648,672) scale(4.12)"><rect width="6" height="6"></rect></g>
<g transform="translate(672,672) scale(4.12)"><rect width="6" height="6"></rect></g>
<g transform="translate(696,672) scale(4.12)"><rect width="6" height="6"></rect></g>
<g transform="translate(720,672) scale(4.12)"><rect width="6" height="6"></rect></g>
<g transform="translate(768,672) scale(4.12)"><rect width="6" height="6"></rect></g>
<g transform="translate(888,672) scale(4.12)"><rect width="6" height="6"></rect></g>
<g transform="translate(912,672) scale(4.12)"><rect width="6" height="6"></rect></g>
<g transform="translate(48,696) scale(4.12)"><rect width="6" height="6"></rect></g>
<g transform="translate(144,696) scale(4.12)"><rect width="6" height="6"></rect></g>
<g transform="translate(216,696) scale(4.12)"><rect width="6" height="6"></rect></g>
<g transform="translate(264,696) scale(4.12)"><rect width="6" height="6"></rect></g>
<g transform="translate(312,696) scale(4.12)"><rect width="6" height="6"></rect></g>
<g transform="translate(336,696) scale(4.12)"><rect width="6" height="6"></rect></g>
<g transform="translate(360,696) scale(4.12)"><rect width="6" height="6"></rect></g>
<g transform="translate(432,696) scale(4.12)"><rect width="6" height="6"></rect></g>
<g transform="translate(456,696) scale(4.12)"><rect width="6" height="6"></rect></g>
<g transform="translate(480,696) scale(4.12)"><rect width="6" height="6"></rect></g>
<g transform="translate(504,696) scale(4.12)"><rect width="6" height="6"></rect></g>
<g transform="translate(528,696) scale(4.12)"><rect width="6" height="6"></rect></g>
<g transform="translate(600,696) scale(4.12)"><rect width="6" height="6"></rect></g>
<g transform="translate(672,696) scale(4.12)"><rect width="6" height="6"></rect></g>
<g transform="translate(744,696) scale(4.12)"><rect width="6" height="6"></rect></g>
<g transform="translate(792,696) scale(4.12)"><rect width="6" height="6"></rect></g>
<g transform="translate(48,720) scale(4.12)"><rect width="6" height="6"></rect></g>
<g transform="translate(96,720) scale(4.12)"><rect width="6" height="6"></rect></g>
<g transform="translate(144,720) scale(4.12)"><rect width="6" height="6"></rect></g>
<g transform="translate(192,720) scale(4.12)"><rect width="6" height="6"></rect></g>
<g transform="translate(216,720) scale(4.12)"><rect width="6" height="6"></rect></g>
<g transform="translate(264,720) scale(4.12)"><rect width="6" height="6"></rect></g>
<g transform="translate(312,720) scale(4.12)"><rect width="6" height="6"></rect></g>
<g transform="translate(336,720) scale(4.12)"><rect width="6" height="6"></rect></g>
<g transform="translate(360,720) scale(4.12)"><rect width="6" height="6"></rect></g>
<g transform="translate(384,720) scale(4.12)"><rect width="6" height="6"></rect></g>
<g transform="translate(504,720) scale(4.12)"><rect width="6" height="6"></rect></g>
<g transform="translate(528,720) scale(4.12)"><rect width="6" height="6"></rect></g>
<g transform="translate(600,720) scale(4.12)"><rect width="6" height="6"></rect></g>
<g transform="translate(648,720) scale(4.12)"><rect width="6" height="6"></rect></g>
<g transform="translate(672,720) scale(4.12)"><rect width="6" height="6"></rect></g>
<g transform="translate(720,720) scale(4.12)"><rect width="6" height="6"></rect></g>
<g transform="translate(744,720) scale(4.12)"><rect width="6" height="6"></rect></g>
<g transform="translate(768,720) scale(4.12)"><rect width="6" height="6"></rect></g>
<g transform="translate(792,720) scale(4.12)"><rect width="6" height="6"></rect></g>
<g transform="translate(816,720) scale(4.12)"><rect width="6" height="6"></rect></g>
<g transform="translate(864,720) scale(4.12)"><rect width="6" height="6"></rect></g>
<g transform="translate(888,720) scale(4.12)"><rect width="6" height="6"></rect></g>
<g transform="translate(240,744) scale(4.12)"><rect width="6" height="6"></rect></g>
<g transform="translate(264,744) scale(4.12)"><rect width="6" height="6"></rect></g>
<g transform="translate(312,744) scale(4.12)"><rect width="6" height="6"></rect></g>
<g transform="translate(336,744) scale(4.12)"><rect width="6" height="6"></rect></g>
<g transform="translate(360,744) scale(4.12)"><rect width="6" height="6"></rect></g>
<g transform="translate(480,744) scale(4.12)"><rect width="6" height="6"></rect></g>
<g transform="translate(504,744) scale(4.12)"><rect width="6" height="6"></rect></g>
<g transform="translate(528,744) scale(4.12)"><rect width="6" height="6"></rect></g>
<g transform="translate(552,744) scale(4.12)"><rect width="6" height="6"></rect></g>
<g transform="translate(600,744) scale(4.12)"><rect width="6" height="6"></rect></g>
<g transform="translate(648,744) scale(4.12)"><rect width="6" height="6"></rect></g>
<g transform="translate(720,744) scale(4.12)"><rect width="6" height="6"></rect></g>
<g transform="translate(816,744) scale(4.12)"><rect width="6" height="6"></rect></g>
<g transform="translate(888,744) scale(4.12)"><rect width="6" height="6"></rect></g>
<g transform="translate(312,768) scale(4.12)"><rect width="6" height="6"></rect></g>
<g transform="translate(336,768) scale(4.12)"><rect width="6" height="6"></rect></g>
<g transform="translate(408,768) scale(4.12)"><rect width="6" height="6"></rect></g>
<g transform="translate(456,768) scale(4.12)"><rect width="6" height="6"></rect></g>
<g transform="translate(480,768) scale(4.12)"><rect width="6" height="6"></rect></g>
<g transform="translate(528,768) scale(4.12)"><rect width="6" height="6"></rect></g>
<g transform="translate(552,768) scale(4.12)"><rect width="6" height="6"></rect></g>
<g transform="translate(576,768) scale(4.12)"><rect width="6" height="6"></rect></g>
<g transform="translate(624,768) scale(4.12)"><rect width="6" height="6"></rect></g>
<g transform="translate(720,768) scale(4.12)"><rect width="6" height="6"></rect></g>
<g transform="translate(768,768) scale(4.12)"><rect width="6" height="6"></rect></g>
<g transform="translate(816,768) scale(4.12)"><rect width="6" height="6"></rect></g>
<g transform="translate(840,768) scale(4.12)"><rect width="6" height="6"></rect></g>
<g transform="translate(888,768) scale(4.12)"><rect width="6" height="6"></rect></g>
<g transform="translate(912,768) scale(4.12)"><rect width="6" height="6"></rect></g>
<g transform="translate(288,792) scale(4.12)"><rect width="6" height="6"></rect></g>
<g transform="translate(336,792) scale(4.12)"><rect width="6" height="6"></rect></g>
<g transform="translate(360,792) scale(4.12)"><rect width="6" height="6"></rect></g>
<g transform="translate(408,792) scale(4.12)"><rect width="6" height="6"></rect></g>
<g transform="translate(432,792) scale(4.12)"><rect width="6" height="6"></rect></g>
<g transform="translate(456,792) scale(4.12)"><rect width="6" height="6"></rect></g>
<g transform="translate(504,792) scale(4.12)"><rect width="6" height="6"></rect></g>
<g transform="translate(552,792) scale(4.12)"><rect width="6" height="6"></rect></g>
<g transform="translate(672,792) scale(4.12)"><rect width="6" height="6"></rect></g>
<g transform="translate(720,792) scale(4.12)"><rect width="6" height="6"></rect></g>
<g transform="translate(816,792) scale(4.12)"><rect width="6" height="6"></rect></g>
<g transform="translate(888,792) scale(4.12)"><rect width="6" height="6"></rect></g>
<g transform="translate(912,792) scale(4.12)"><rect width="6" height="6"></rect></g>
<g transform="translate(240,816) scale(4.12)"><rect width="6" height="6"></rect></g>
<g transform="translate(288,816) scale(4.12)"><rect width="6" height="6"></rect></g>
<g transform="translate(312,816) scale(4.12)"><rect width="6" height="6"></rect></g>
<g transform="translate(384,816) scale(4.12)"><rect width="6" height="6"></rect></g>
<g transform="translate(456,816) scale(4.12)"><rect width="6" height="6"></rect></g>
<g transform="translate(480,816) scale(4.12)"><rect width="6" height="6"></rect></g>
<g transform="translate(648,816) scale(4.12)"><rect width="6" height="6"></rect></g>
<g transform="translate(672,816) scale(4.12)"><rect width="6" height="6"></rect></g>
<g transform="translate(696,816) scale(4.12)"><rect width="6" height="6"></rect></g>
<g transform="translate(720,816) scale(4.12)"><rect width="6" height="6"></rect></g>
<g transform="translate(744,816) scale(4.12)"><rect width="6" height="6"></rect></g>
<g transform="translate(768,816) scale(4.12)"><rect width="6" height="6"></rect></g>
<g transform="translate(792,816) scale(4.12)"><rect width="6" height="6"></rect></g>
<g transform="translate(816,816) scale(4.12)"><rect width="6" height="6"></rect></g>
<g transform="translate(864,816) scale(4.12)"><rect width="6" height="6"></rect></g>
<g transform="translate(240,840) scale(4.12)"><rect width="6" height="6"></rect></g>
<g transform="translate(264,840) scale(4.12)"><rect width="6" height="6"></rect></g>
<g transform="translate(288,840) scale(4.12)"><rect width="6" height="6"></rect></g>
<g transform="translate(336,840) scale(4.12)"><rect width="6" height="6"></rect></g>
<g transform="translate(360,840) scale(4.12)"><rect width="6" height="6"></rect></g>
<g transform="translate(384,840) scale(4.12)"><rect width="6" height="6"></rect></g>
<g transform="translate(408,840) scale(4.12)"><rect width="6" height="6"></rect></g>
<g transform="translate(456,840) scale(4.12)"><rect width="6" height="6"></rect></g>
<g transform="translate(480,840) scale(4.12)"><rect width="6" height="6"></rect></g>
<g transform="translate(552,840) scale(4.12)"><rect width="6" height="6"></rect></g>
<g transform="translate(576,840) scale(4.12)"><rect width="6" height="6"></rect></g>
<g transform="translate(624,840) scale(4.12)"><rect width="6" height="6"></rect></g>
<g transform="translate(648,840) scale(4.12)"><rect width="6" height="6"></rect></g>
<g transform="translate(768,840) scale(4.12)"><rect width="6" height="6"></rect></g>
<g transform="translate(816,840) scale(4.12)"><rect width="6" height="6"></rect></g>
<g transform="translate(240,864) scale(4.12)"><rect width="6" height="6"></rect></g>
<g transform="translate(264,864) scale(4.12)"><rect width="6" height="6"></rect></g>
<g transform="translate(384,864) scale(4.12)"><rect width="6" height="6"></rect></g>
<g transform="translate(408,864) scale(4.12)"><rect width="6" height="6"></rect></g>
<g transform="translate(432,864) scale(4.12)"><rect width="6" height="6"></rect></g>
<g transform="translate(456,864) scale(4.12)"><rect width="6" height="6"></rect></g>
<g transform="translate(480,864) scale(4.12)"><rect width="6" height="6"></rect></g>
<g transform="translate(528,864) scale(4.12)"><rect width="6" height="6"></rect></g>
<g transform="translate(552,864) scale(4.12)"><rect width="6" height="6"></rect></g>
<g transform="translate(648,864) scale(4.12)"><rect width="6" height="6"></rect></g>
<g transform="translate(672,864) scale(4.12)"><rect width="6" height="6"></rect></g>
<g transform="translate(696,864) scale(4.12)"><rect width="6" height="6"></rect></g>
<g transform="translate(744,864) scale(4.12)"><rect width="6" height="6"></rect></g>
<g transform="translate(792,864) scale(4.12)"><rect width="6" height="6"></rect></g>
<g transform="translate(912,864) scale(4.12)"><rect width="6" height="6"></rect></g>
<g transform="translate(264,888) scale(4.12)"><rect width="6" height="6"></rect></g>
<g transform="translate(312,888) scale(4.12)"><rect width="6" height="6"></rect></g>
<g transform="translate(360,888) scale(4.12)"><rect width="6" height="6"></rect></g>
<g transform="translate(432,888) scale(4.12)"><rect width="6" height="6"></rect></g>
<g transform="translate(456,888) scale(4.12)"><rect width="6" height="6"></rect></g>
<g transform="translate(528,888) scale(4.12)"><rect width="6" height="6"></rect></g>
<g transform="translate(576,888) scale(4.12)"><rect width="6" height="6"></rect></g>
<g transform="translate(624,888) scale(4.12)"><rect width="6" height="6"></rect></g>
<g transform="translate(672,888) scale(4.12)"><rect width="6" height="6"></rect></g>
<g transform="translate(696,888) scale(4.12)"><rect width="6" height="6"></rect></g>
<g transform="translate(720,888) scale(4.12)"><rect width="6" height="6"></rect></g>
<g transform="translate(768,888) scale(4.12)"><rect width="6" height="6"></rect></g>
<g transform="translate(816,888) scale(4.12)"><rect width="6" height="6"></rect></g>
<g transform="translate(912,888) scale(4.12)"><rect width="6" height="6"></rect></g>
<g transform="translate(312,912) scale(4.12)"><rect width="6" height="6"></rect></g>
<g transform="translate(456,912) scale(4.12)"><rect width="6" height="6"></rect></g>
<g transform="translate(480,912) scale(4.12)"><rect width="6" height="6"></rect></g>
<g transform="translate(624,912) scale(4.12)"><rect width="6" height="6"></rect></g>
<g transform="translate(648,912) scale(4.12)"><rect width="6" height="6"></rect></g>
<g transform="translate(672,912) scale(4.12)"><rect width="6" height="6"></rect></g>
<g transform="translate(744,912) scale(4.12)"><rect width="6" height="6"></rect></g>
<g transform="translate(792,912) scale(4.12)"><rect width="6" height="6"></rect></g>
<g transform="translate(816,912) scale(4.12)"><rect width="6" height="6"></rect></g>
<g transform="translate(840,912) scale(4.12)"><rect width="6" height="6"></rect></g>
<g transform="translate(864,912) scale(4.12)"><rect width="6" height="6"></rect></g>
<g transform="translate(888,912) scale(4.12)"><rect width="6" height="6"></rect></g>
<g transform="translate(912,912) scale(4.12)"><rect width="6" height="6"></rect></g>
</g><g><g transform="translate(48,48)" fill="#000000"><g transform="scale(12)"><path d="M0,0v14h14V0H0z M12,12H2V2h10V12z"></path></g></g>
<g transform="translate(768,48)" fill="#000000"><g transform="scale(12)"><path d="M0,0v14h14V0H0z M12,12H2V2h10V12z"></path></g></g>
<g transform="translate(48,768)" fill="#000000"><g transform="scale(12)"><path d="M0,0v14h14V0H0z M12,12H2V2h10V12z"></path></g></g>
<g transform="translate(96,96)" fill="#000000"><g transform="scale(12)"><rect width="6" height="6"></rect></g></g>
<g transform="translate(816,96)" fill="#000000"><g transform="scale(12)"><rect width="6" height="6"></rect></g></g>
<g transform="translate(96,816)" fill="#000000"><g transform="scale(12)"><rect width="6" height="6"></rect></g></g></g>
</svg>
