<?xml version="1.0" encoding="UTF-8" standalone="no"?>
<svg
   xmlns:dc="http://purl.org/dc/elements/1.1/"
   xmlns:cc="http://creativecommons.org/ns#"
   xmlns:rdf="http://www.w3.org/1999/02/22-rdf-syntax-ns#"
   xmlns:svg="http://www.w3.org/2000/svg"
   xmlns="http://www.w3.org/2000/svg"
   xmlns:sodipodi="http://sodipodi.sourceforge.net/DTD/sodipodi-0.dtd"
   xmlns:inkscape="http://www.inkscape.org/namespaces/inkscape"
   version="1.1"
   id="svg10"
   xml:space="preserve"
   width="666.66669"
   height="666.66669"
   viewBox="0 0 666.66669 666.66669"
   sodipodi:docname="vs.svg"
   inkscape:version="1.0.2-2 (e86c870879, 2021-01-15)"><metadata
     id="metadata16"><rdf:RDF><cc:Work
         rdf:about=""><dc:format>image/svg+xml</dc:format><dc:type
           rdf:resource="http://purl.org/dc/dcmitype/StillImage" /><dc:title></dc:title></cc:Work></rdf:RDF></metadata><defs
     id="defs14" /><sodipodi:namedview
     pagecolor="#ffffff"
     bordercolor="#666666"
     borderopacity="1"
     objecttolerance="10"
     gridtolerance="10"
     guidetolerance="10"
     inkscape:pageopacity="0"
     inkscape:pageshadow="2"
     inkscape:window-width="1920"
     inkscape:window-height="1001"
     id="namedview12"
     showgrid="false"
     inkscape:zoom="1.272"
     inkscape:cx="333.33334"
     inkscape:cy="333.33334"
     inkscape:window-x="-9"
     inkscape:window-y="-9"
     inkscape:window-maximized="1"
     inkscape:current-layer="g18" /><g
     id="g18"
     inkscape:groupmode="layer"
     inkscape:label="ink_ext_XXXXXX"
     transform="matrix(1.3333333,0,0,-1.3333333,0,666.66667)"><g
       id="g20"
       transform="scale(0.1)"><path
         d="M 5000,0 H 0 V 5000 H 5000 V 0"
         style="fill:#ffffff;fill-opacity:1;fill-rule:nonzero;stroke:none"
         id="path22" /><path
         d="m 2270.25,3343.61 125.51,761.41 308.12,-761.41 273.65,502.03 79.24,-535.5 714.8,482.27 -447.05,-758.38 843.46,128.08 -667.75,-647.02 527.13,-126.58 -541.97,-219.09 525.23,-616.38 -753.04,50.2 L 3533.7,900.398 2883.66,1502.84 2613.32,672 l -267.76,897.78 -414.03,-426.73 78.66,485.3 -844.4,-242.65 539.68,635.81 -712.603,296.14 647.113,197.44 -566.23,820.16 936.44,-267.75 -305.3,500.12 565.36,-224.01"
         style="fill:#ee232a;fill-opacity:1;fill-rule:nonzero;stroke:none"
         id="path24" /><path
         d="m 2270.25,3343.61 125.51,761.41 308.12,-761.41 273.65,502.03 79.24,-535.5 714.8,482.27 -447.05,-758.38 843.46,128.08 -667.75,-647.02 527.13,-126.58 -541.97,-219.09 525.23,-616.38 -753.04,50.2 L 3533.7,900.398 2883.66,1502.84 2613.32,672 l -267.76,897.78 -414.03,-426.73 78.66,485.3 -844.4,-242.65 539.68,635.81 -712.603,296.14 647.113,197.44 -566.23,820.16 936.44,-267.75 -305.3,500.12 z"
         style="fill:none;stroke:#f36917;stroke-width:133.875;stroke-linecap:round;stroke-linejoin:miter;stroke-miterlimit:10;stroke-dasharray:none;stroke-opacity:1"
         id="path26" /><path
         d="m 2797.37,3527.85 -26.59,-70.06 c -38.62,-1.86 -71.16,-4.43 -97.68,-7.76 -44.47,-5.58 -86.2,-12.25 -125.27,-19.96 -38.63,-7.65 -76.36,-16.53 -113.22,-26.61 l -310.66,-993.31 -274.51,921.47 -105.9,66.85 19.99,-67.1 c -30.78,-0.89 -58.82,-2.88 -84.19,-6.07 -31.58,-3.96 -63.95,-9.54 -97.08,-16.65 -32.75,-7.05 -58.76,-13.51 -78.23,-19.43 l 389.17,-1201.67 -70.5,-42.44 105.9,-66.86 c 39.07,-9.89 73.22,-17.98 102.22,-24.19 29.3,-6.25 58.18,-11.19 86.68,-14.77 30.21,-3.79 61.83,-6.42 94.92,-7.9 33.45,-1.47 69.93,-1.95 109.59,-1.43 l 581.26,1531.03 -105.9,66.86"
         style="fill:#ab1f24;fill-opacity:1;fill-rule:nonzero;stroke:none"
         id="path28" /><path
         d="m 2018.05,2477 310.66,993.31 c 36.86,10.08 74.59,18.96 113.22,26.61 39.07,7.71 80.8,14.38 125.27,19.96 29.38,3.69 66.08,6.45 110.34,8.35 44.84,1.89 84.86,2.78 119.83,2.62 L 2216.11,1996.81 c -39.66,-0.52 -76.14,-0.03 -109.59,1.43 -33.09,1.49 -64.71,4.12 -94.92,7.91 -28.5,3.57 -57.38,8.51 -86.68,14.76 -29,6.22 -63.15,14.3 -102.22,24.2 l -424.57,1310.96 c 19.47,5.92 45.48,12.38 78.23,19.43 33.13,7.11 65.5,12.69 97.08,16.66 25.76,3.23 54.25,5.25 85.6,6.11 31.68,0.84 59.89,0.92 84.5,0.2 L 2018.05,2477"
         style="fill:#face07;fill-opacity:1;fill-rule:nonzero;stroke:none"
         id="path30" /><path
         d="m 3370.29,2236.8 c -27.93,31.58 -61.96,59.12 -102.35,82.63 -41.15,23.9 -88.43,48.1 -142.26,72.66 l -95.23,42.56 c -35.38,15.37 -66.36,33.55 -92.76,54.55 -26.7,21.18 -39.95,52.4 -39.51,93.5 0.25,24.07 5.47,43.85 15.62,59.3 10.1,15.36 23.32,26.87 39.58,34.55 16.13,7.6 34.22,12.54 54.21,14.8 19.8,2.25 40.45,2.32 61.91,0.24 68.35,-6.62 123.97,-20.01 167.71,-40.03 42.88,-19.63 79.57,-37.8 110.4,-54.58 l 129.63,66.86 -37.4,147.06 h -26.21 c 3.4,17.92 6.3,35.34 8.39,51.96 -62.4,33.39 -122.76,61.31 -180.78,83.43 -59.54,22.66 -123,39.55 -190.67,50.41 -35.1,5.64 -69.1,8.89 -102.04,9.96 1.47,10.78 1.89,18.09 1.89,18.09 l -100.26,11.28 -148.93,-75.78 c -4.66,-2.27 -9.28,-4.59 -13.81,-7.03 l -3.46,-1.76 c 0,0 0.01,-0.1 0.02,-0.16 -10.87,-5.98 -21.49,-12.31 -31.64,-19.27 -52.32,-35.81 -93.87,-83.25 -124.16,-142.22 -30.63,-59.68 -46.51,-130.47 -47.37,-211.9 -0.7,-66.08 8.36,-124.1 27.09,-173.8 18.58,-49.37 44.91,-92.79 78.72,-130.17 33.35,-36.94 73.02,-68.5 118.75,-94.75 44.86,-25.78 93.87,-47.43 146.71,-64.93 l 119,-41.1 c 17.89,-6.38 35.31,-13.05 52.3,-20.01 16.81,-6.94 31.84,-15.6 45.1,-25.98 13.17,-10.35 23.62,-23.12 31.36,-38.32 7.73,-15.18 11.45,-33.59 11.23,-55.22 -0.55,-51.45 -19.65,-89.17 -57.78,-113.49 -38.75,-24.74 -93.65,-40.51 -165.79,-47.21 -69.84,-6.49 -150.79,0.6 -243.82,21.94 l 4.02,101.94 -129.63,-66.85 c -24.02,-64.54 -44.83,-128.11 -62.36,-190.64 -17.68,-62.96 -30.29,-122.12 -37.72,-177.31 92.66,-18.78 176.27,-29.62 251.52,-32.86 73.05,-3.16 154.87,2.62 244.48,16.96 94.63,15.13 175.62,39.28 244.12,72.11 66.56,31.92 121.33,70.6 165.11,116.15 42.94,44.64 75.07,94.92 96.89,151.07 21.59,55.59 32.65,116.44 33.35,182.98 0.65,61.47 -6.13,113.64 -20.38,156.66 -14.37,43.31 -35.23,80.5 -62.79,111.72"
         style="fill:#ab1f24;fill-opacity:1;fill-rule:nonzero;stroke:none"
         id="path32" /><path
         d="m 3255.31,2458.95 c 53.83,-24.57 101.11,-48.76 142.26,-72.67 40.39,-23.51 74.42,-51.05 102.34,-82.63 27.57,-31.21 48.43,-68.41 62.8,-111.71 14.25,-43.02 21.03,-95.19 20.38,-156.67 -0.7,-66.54 -11.76,-127.39 -33.35,-182.97 -21.83,-56.15 -53.95,-106.43 -96.89,-151.07 -43.79,-45.55 -98.55,-84.24 -165.11,-116.15 -68.5,-32.84 -149.49,-56.98 -244.12,-72.12 -89.61,-14.33 -171.43,-20.12 -244.48,-16.96 -75.25,3.24 -158.87,14.09 -251.52,32.87 7.43,55.18 20.03,114.34 37.72,177.3 17.53,62.53 38.34,126.11 62.36,190.64 147.72,-48.03 269.82,-66.28 369.42,-57.03 72.15,6.7 127.05,22.47 165.8,47.21 38.13,24.32 57.23,62.04 57.77,113.49 0.23,21.63 -3.49,40.04 -11.22,55.22 -7.74,15.21 -18.19,27.98 -31.36,38.33 -13.26,10.37 -28.29,19.03 -45.1,25.97 -16.99,6.96 -34.42,13.63 -52.31,20.01 l -118.99,41.11 c -52.85,17.5 -101.85,39.14 -146.71,64.92 -45.73,26.25 -85.4,57.81 -118.75,94.75 -33.81,37.39 -60.15,80.8 -78.72,130.17 -18.73,49.7 -27.79,107.73 -27.09,173.81 0.85,81.43 16.74,152.21 47.37,211.89 30.29,58.98 71.84,106.42 124.15,142.23 51.25,35.1 111.65,57.77 180.5,68.31 66.98,10.24 139.77,8.87 217.74,-3.64 67.66,-10.86 131.12,-27.76 190.67,-50.42 58.02,-22.12 118.37,-50.04 180.78,-83.43 -5.02,-39.94 -13.81,-83.61 -26.44,-131.13 -12.71,-47.82 -28.7,-92.72 -47.97,-134.74 -30.83,16.78 -67.53,34.95 -110.4,54.58 -43.74,20.01 -99.36,33.4 -167.71,40.03 -21.46,2.08 -42.11,2.01 -61.91,-0.24 -19.99,-2.27 -38.08,-7.21 -54.21,-14.8 -16.26,-7.69 -29.48,-19.2 -39.58,-34.55 -10.15,-15.45 -15.37,-35.23 -15.63,-59.3 -0.43,-41.11 12.82,-72.33 39.52,-93.51 26.4,-20.99 57.37,-39.17 92.75,-54.55 l 95.24,-42.55"
         style="fill:#face07;fill-opacity:1;fill-rule:nonzero;stroke:none"
         id="path34" /></g></g></svg>
